<?xml version="1.0" encoding="utf-8"?>
<!-- Generator: Adobe Illustrator 24.0.2, SVG Export Plug-In . SVG Version: 6.00 Build 0)  -->
<svg version="1.1" id="Слой_1" xmlns="http://www.w3.org/2000/svg" xmlns:xlink="http://www.w3.org/1999/xlink" x="0px" y="0px"
	 viewBox="0 0 257.77 161.42" style="enable-background:new 0 0 257.77 161.42;" xml:space="preserve">
<style type="text/css">
	.st0{fill:url(#SVGID_1_);}
	.st1{fill:#FFFFFF;}
</style>
<linearGradient id="SVGID_1_" gradientUnits="userSpaceOnUse" x1="129.1246" y1="0" x2="129.1246" y2="161.4165">
	<stop  offset="0" style="stop-color:#E5BF55"/>
	<stop  offset="0.3139" style="stop-color:#CCA64B"/>
	<stop  offset="0.7515" style="stop-color:#AE883F"/>
	<stop  offset="1" style="stop-color:#A37D3A"/>
</linearGradient>
<path class="st0" d="M222.24,51.33c-6.34-5.71-12.69-11.42-19.03-17.14c-0.72-0.92-2.46-2.9-4.4-2.65c-1.19,0.15-1.95,1.11-2.31,1.5
	c-2.77,2.95-5.78,5.69-9.47,9.28V0c-1.51,1.37-2.44,2.18-3.34,3.03c-17.32,16.19-34.66,32.35-51.89,48.63
	c-1.97,1.86-2.94,1.97-4.98,0.04C109.51,35.32,92.07,19.08,74.65,2.83c-0.84-0.78-1.43-2.01-3.16-2.08
	c0,10.18-0.01,20.25,0.02,30.32c0.01,0.59,0.13,1.36,0.51,1.73c3.66,3.6,7.39,7.12,11.91,11.44V28.1c1.32,1.16,2.16,1.84,2.95,2.58
	c13.13,12.26,26.32,24.47,39.33,36.86c2.32,2.21,3.57,2.54,6.08,0.13c13.07-12.51,26.35-24.8,39.59-37.13
	c0.74-0.7,1.25-1.93,2.54-1.73v110.72c-11.57-11.03-22.58-21.69-33.79-32.12c-2.36-2.19-1.8-3.23,0.19-5.07
	c8.34-7.71,16.54-15.56,24.77-23.38c0.88-0.83,2.07-1.47,2.06-2.95c-0.01-4.91,0-9.82,0-15.57c-28.19,26.66-55.67,52.65-83.57,79.03
	V70.51c10.62,10.04,20.56,19.44,30.63,29.02c2.86-2.51,5.73-5.02,8.59-7.54C88.58,58.74,63.68,34.82,61.92,32.85
	c-0.22-0.24-1.13-1.32-2.38-1.34c-0.73-0.01-1.46,0.43-2.42,1.28C38.84,49.03,20.49,65.2,2.08,81.3c-1.91,1.67-2.25,2.58-0.28,4.56
	c24.49,24.56,48.92,49.18,73.25,73.91c2.17,2.21,3.25,1.83,5.22-0.05c15.52-14.82,31.19-29.49,46.67-44.35
	c2.08-1.99,3.06-1.76,4.99,0.1c15.45,14.89,31.05,29.63,46.51,44.51c1.86,1.79,2.96,2.11,4.84-0.21c0.96-1.19,2.01-2.32,3.09-3.41
	c23.2-23.35,46.38-46.74,69.67-70c0.34-0.34,1.6-1.3,1.72-2.78c0.13-1.46-0.88-2.76-1.83-3.67
	C244.7,70.38,233.47,60.86,222.24,51.33z M71.72,72.38c-0.17,10.4-0.22,19.88-0.23,61.3v4.38c-6.16-5.98-11.94-11.44-17.55-17.07
	c-11.43-11.47-22.73-23.07-34.17-34.52c-0.94-0.93-1.52-1.63-1.51-2.37c0.01-1.13,1.13-1.94,1.45-2.17
	c2.15-1.64,17.89-15.18,39.84-34.12c4.16,3.08,8.32,8.17,12.48,11.26C71.87,65.64,71.77,68.96,71.72,72.38z M239.7,85.77
	c-17.45,17.12-34.86,34.29-52.53,51.71v-3.15c0-24.08-0.02-48.16-0.06-72.25c-0.01-0.75-0.03-1.5-0.05-2.25
	c4.03-4.04,8.07-8.09,12.11-12.13c22.63,19.68,38.89,33.77,40.41,34.9c0.2,0.15,1.04,0.74,1.06,1.57
	C240.66,84.64,240.34,85.13,239.7,85.77z"/>
<path class="st1" d="M203.19,62.7"/>
</svg>
