<svg id="Слой_1" data-name="Слой 1" xmlns="http://www.w3.org/2000/svg" xmlns:xlink="http://www.w3.org/1999/xlink" viewBox="0 0 257.3 161.42">
  <defs>
    <style>
      .cls-1 {
        fill: url(#Безымянный_градиент_110);
      }

      .cls-2 {
        fill: #fff;
      }
    </style>
    <linearGradient id="Безымянный_градиент_110" data-name="Безымянный градиент 110" x1="129.12" x2="129.12" y2="161.42" gradientUnits="userSpaceOnUse">
      <stop offset="0" stop-color="#e5bf55"/>
      <stop offset="0.31" stop-color="#cca64b"/>
      <stop offset="0.75" stop-color="#ae883f"/>
      <stop offset="1" stop-color="#a37d3a"/>
    </linearGradient>
  </defs>
  <title>logo</title>
  <path class="cls-1" d="M222.24,51.33l-19-17.14c-.72-.92-2.46-2.9-4.4-2.65A4,4,0,0,0,196.5,33c-2.77,3-5.78,5.69-9.47,9.28V0c-1.51,1.37-2.44,2.18-3.34,3q-26,24.28-51.89,48.63c-2,1.86-2.94,2-5,0q-26-24.57-52.17-48.87c-.84-.78-1.43-2-3.16-2.08,0,10.18,0,20.25,0,30.32A2.67,2.67,0,0,0,72,32.8c3.66,3.6,7.39,7.12,11.91,11.44V28.1c1.32,1.16,2.16,1.84,2.95,2.58C100,42.94,113.2,55.15,126.21,67.54c2.32,2.21,3.57,2.54,6.08.13,13.07-12.51,26.35-24.8,39.59-37.13.74-.7,1.25-1.93,2.54-1.73V139.53c-11.57-11-22.58-21.69-33.79-32.12-2.36-2.19-1.8-3.23.19-5.07,8.34-7.71,16.54-15.56,24.77-23.38.88-.83,2.07-1.47,2.06-2.95,0-4.91,0-9.82,0-15.57l-83.57,79v-69c10.62,10,20.56,19.44,30.63,29L123.3,92C88.58,58.74,63.68,34.82,61.92,32.85a3.54,3.54,0,0,0-2.38-1.34,3.85,3.85,0,0,0-2.42,1.28Q29.7,57.15,2.08,81.3C.17,83-.17,83.88,1.8,85.86q36.74,36.84,73.25,73.91c2.17,2.21,3.25,1.83,5.22-.05,15.52-14.82,31.19-29.49,46.67-44.35,2.08-2,3.06-1.76,5,.1,15.45,14.89,31,29.63,46.51,44.51,1.86,1.79,3,2.11,4.84-.21a45.26,45.26,0,0,1,3.09-3.41q34.8-35,69.67-70a4.51,4.51,0,0,0,1.72-2.78,4.89,4.89,0,0,0-1.83-3.67Zm-150.52,21c-.17,10.4-.22,19.88-.23,61.3v4.38c-6.16-6-11.94-11.44-17.55-17.07C42.51,109.52,31.21,97.92,19.77,86.47c-.94-.93-1.52-1.63-1.51-2.37a3.06,3.06,0,0,1,1.45-2.17c2.15-1.64,17.89-15.18,39.84-34.12C63.71,50.89,67.87,56,72,59.07,71.87,65.64,71.77,69,71.72,72.38Zm168,13.39c-17.45,17.12-34.86,34.29-52.53,51.71v-3.15q0-36.12-.06-72.25c0-.75,0-1.5-.05-2.25L199.17,47.7c22.63,19.68,38.89,33.77,40.41,34.9a2.29,2.29,0,0,1,1.06,1.57C240.66,84.64,240.34,85.13,239.7,85.77Z" transform="translate(-0.47)"/>
  <path class="cls-2" d="M203.19,62.7" transform="translate(-0.47)"/>
</svg>
